<svg xmlns="http://www.w3.org/2000/svg" version="1.1" xmlns:xlink="http://www.w3.org/1999/xlink" width="200" height="200"><svg xmlns="http://www.w3.org/2000/svg" version="1.1" xmlns:xlink="http://www.w3.org/1999/xlink" viewBox="0 0 200 200"><rect width="200" height="200" fill="url('#gradient')"></rect><defs><linearGradient id="SvgjsLinearGradient1001" gradientTransform="rotate(0 0.5 0.5)"><stop offset="0%" stop-color="#ffffff"></stop><stop offset="100%" stop-color="#d5c3a1"></stop></linearGradient></defs><g><g fill="#484848" transform="matrix(5.827642276422765,0,0,5.827642276422765,43.35852121105039,141.43391222992562)" stroke="#000000" stroke-width="0.2"><path d="M4.73-14.22L4.73 0L1.31 0L1.31-14.22L4.73-14.22ZM12.88 0L7.11 0L7.11-14.22L12.22-14.22Q14.96-14.22 16.39-13.21Q17.82-12.21 17.82-10.29L17.82-10.29Q17.82-9.19 17.31-8.41Q16.81-7.63 15.82-7.26L15.82-7.26Q16.93-6.96 17.53-6.16Q18.13-5.36 18.13-4.21L18.13-4.21Q18.13-2.12 16.80-1.07Q15.48-0.02 12.88 0L12.88 0ZM12.94-6.04L10.54-6.04L10.54-2.64L12.78-2.64Q13.71-2.64 14.21-3.06Q14.71-3.49 14.71-4.26L14.71-4.26Q14.71-6.04 12.94-6.04L12.94-6.04ZM10.54-11.57L10.54-8.29L12.32-8.29Q13.45-8.30 13.93-8.70Q14.40-9.10 14.40-9.88L14.40-9.88Q14.40-10.78 13.89-11.18Q13.37-11.57 12.22-11.57L12.22-11.57L10.54-11.57Z"></path></g></g></svg><style>@media (prefers-color-scheme: light) { :root { filter: none; } }
@media (prefers-color-scheme: dark) { :root { filter: none; } }
</style></svg>